<svg viewBox="0 0 128 128" xmlns="http://www.w3.org/2000/svg" id="technology">
  <defs>
  <style>
    @media(prefers-color-scheme: dark) {
      :root { --color-logo-shape: #000000; --color-logo-base: #ffffff; }
    }
    body[data-color-scheme="dark"] {
      --color-logo-shape: #000000; --color-logo-base: #ffffff;
    }
  </style>
  <path id="surface" d="m 6,47 l 58,-47 58,47 -58,45 z"/>
  <path id="strut"   d="m 6,47 v 12 l 58,45 v -12 z"/>
  <path id="shape"   d="m83.2,37.9-13.4,2.8,3.6-10.6c1.6-4.7-7.6-6.7-9.2-2l-3.6,10.6-9.8-7.8c-4.3-3.5-11.1,1.8-6.7,5.3l9.8,7.8-13.4,2.8c-6,1.3-3.5,8.5,2.4,7.3l13.4-2.8-3.6,10.6c-1.5,4.5,7.2,6.9,9.2,2l3.6-10.6,9.8,7.8c4.3,3.5,11.1-1.8,6.7-5.3l-9.8-7.8,13.4-2.8c6-1.3,3.5-8.5-2.4-7.2z"/>
  </defs>
  <use href="#strut" fill="#9ee0ff"/>
  <use href="#strut" fill="#6bd0ff" y="12"/>
  <use href="#strut" fill="#38c0ff" y="24"/>
  <g transform="matrix(-1 0 0 1 128 0)">
    <use href="#strut" fill="#f29eff"/>
    <use href="#strut" fill="#eb6bff" y="12"/>
    <use href="#strut" fill="#e438ff" y="24"/>
  </g>
  <use href="#surface" style="fill: var(--color-logo-base, #000000);"/>
  <use href="#shape" style="fill: var(--color-logo-shape, #ffffff);"/>
</svg>
